<?xml version="1.0" standalone="no"?><!DOCTYPE svg PUBLIC "-//W3C//DTD SVG 1.1//EN" "http://www.w3.org/Graphics/SVG/1.1/DTD/svg11.dtd"><svg t="1630932019309" class="icon" viewBox="0 0 1024 1024" version="1.1" xmlns="http://www.w3.org/2000/svg" p-id="3483" xmlns:xlink="http://www.w3.org/1999/xlink" width="200" height="200"><defs><style type="text/css"></style></defs><path d="M682.666667 955.733333H170.666667c-66.030933 0-102.4-36.369067-102.4-102.4V341.333333c0-66.030933 36.369067-102.4 102.4-102.4h339.626666a17.066667 17.066667 0 0 1 0 34.133334H170.666667c-47.223467 0-68.266667 21.0432-68.266667 68.266666v512c0 47.223467 21.0432 68.266667 68.266667 68.266667h512c47.223467 0 68.266667-21.0432 68.266666-68.266667V523.093333a17.066667 17.066667 0 1 1 34.133334 0V853.333333c0 66.030933-36.369067 102.4-102.4 102.4zM768 460.8a34.133333 34.133333 0 0 1-34.133333-34.133333v-136.533334h-136.533334a34.133333 34.133333 0 0 1 0-68.266666h136.533334V85.333333a34.133333 34.133333 0 0 1 68.266666 0v136.533334h136.533334a34.133333 34.133333 0 0 1 0 68.266666h-136.533334v136.533334a34.133333 34.133333 0 0 1-34.133333 34.133333z" p-id="3484"></path></svg>