<?xml version="1.0" standalone="no"?><!DOCTYPE svg PUBLIC "-//W3C//DTD SVG 1.1//EN" "http://www.w3.org/Graphics/SVG/1.1/DTD/svg11.dtd"><svg t="1631615247117" class="icon" viewBox="0 0 1024 1024" version="1.1" xmlns="http://www.w3.org/2000/svg" p-id="611" xmlns:xlink="http://www.w3.org/1999/xlink" width="200" height="200"><defs><style type="text/css"></style></defs><path d="M512 17.067c-273.067 0-494.933 221.866-494.933 494.933S238.933 1006.933 512 1006.933 1006.933 785.067 1006.933 512 785.067 17.067 512 17.067zM870.4 494.933c0 54.614-47.787 102.4-102.40000001 102.4l-276.47999999 0 44.373 44.374c37.547 37.546 37.547 95.573 0 129.706-17.066 17.067-40.96 27.307-64.853 27.307s-47.787-10.24-64.853-27.307l-235.52-235.52c-23.894-23.893-23.894-61.44000001 0-85.333l235.52-235.52c34.133-34.133 95.573-34.133 129.706 0 37.547 37.547 37.547 95.573 0 129.707l-44.373 47.786L768 392.533c54.613 0 102.4 44.374 102.4 102.4z" fill="#707070" p-id="612"></path></svg>