<?xml version="1.0" standalone="no"?><!DOCTYPE svg PUBLIC "-//W3C//DTD SVG 1.1//EN" "http://www.w3.org/Graphics/SVG/1.1/DTD/svg11.dtd"><svg t="1631091691963" class="icon" viewBox="0 0 1024 1024" version="1.1" xmlns="http://www.w3.org/2000/svg" p-id="2974" xmlns:xlink="http://www.w3.org/1999/xlink" width="200" height="200"><defs><style type="text/css"></style></defs><path d="M512 1006.933333c273.066667 0 494.933333-221.866667 494.933333-494.933333S785.066667 17.066667 512 17.066667 17.066667 238.933333 17.066667 512 238.933333 1006.933333 512 1006.933333z m-358.4-477.866666c0-54.613333 47.786667-102.4 102.4-102.4h276.48l-44.373333-44.373334c-37.546667-37.546667-37.546667-95.573333 0-129.706666 17.066667-17.066667 40.96-27.306667 64.853333-27.306667s47.786667 10.24 64.853333 27.306667l235.52 235.52c23.893333 23.893333 23.893333 61.44 0 85.333333l-235.52 235.52c-34.133333 34.133333-95.573333 34.133333-129.706666 0-37.546667-37.546667-37.546667-95.573333 0-129.706667l44.373333-47.786666H256c-54.613333 0-102.4-44.373333-102.4-102.4z" fill="#707070" p-id="2975"></path></svg>