<?xml version="1.0" standalone="no"?><!DOCTYPE svg PUBLIC "-//W3C//DTD SVG 1.1//EN" "http://www.w3.org/Graphics/SVG/1.1/DTD/svg11.dtd"><svg t="1630672183598" class="icon" viewBox="0 0 1024 1024" version="1.1" xmlns="http://www.w3.org/2000/svg" p-id="13291" xmlns:xlink="http://www.w3.org/1999/xlink" width="200" height="200"><defs><style type="text/css"></style></defs><path d="M837.2736 223.32928H188.61056c-59.70432 0-108.1088 48.40448-108.1088 108.1088V850.5344c0 59.69408 48.4096 108.10368 108.1088 108.10368H837.2736c59.70432 0 108.1088-48.4096 108.1088-108.10368V331.43808c0.00512-59.70432-48.40448-108.1088-108.1088-108.1088z m61.93152 631.70048c0 30.44352-24.73472 55.18336-55.17312 55.18336H181.85728c-30.41792 0-55.17824-24.73984-55.17824-55.18336V326.9376c0-30.44864 24.76032-55.18336 55.17824-55.18336H844.032c30.4384 0 55.17312 24.73472 55.17312 55.18336v528.09216zM340.80256 214.3488V160.29696c0-29.7728 24.25856-64.03072 54.05696-64.03072h231.17824c29.83424 0 59.05408 29.27104 59.05408 59.04384v59.04384h44.07296V160.29696c0-59.70432-48.40448-108.1088-108.1088-108.1088H404.83328c-59.70432 0-108.1088 48.40448-108.1088 108.1088v54.05696h44.07808z" p-id="13292"></path><path d="M675.10272 595.22048h-108.1088V487.11168H458.88512v108.1088H350.77632v108.1088h108.1088v108.1088h108.1088v-108.1088h108.1088zM108.78464 339.72736h809.8048v38.2464H108.78464z" p-id="13293"></path></svg>