<?xml version="1.0" standalone="no"?><!DOCTYPE svg PUBLIC "-//W3C//DTD SVG 1.1//EN" "http://www.w3.org/Graphics/SVG/1.1/DTD/svg11.dtd"><svg t="1630672161167" class="icon" viewBox="0 0 1024 1024" version="1.1" xmlns="http://www.w3.org/2000/svg" p-id="12349" xmlns:xlink="http://www.w3.org/1999/xlink" width="200" height="200"><defs><style type="text/css"></style></defs><path d="M947.36 544.76l-64.55-212.48c-12.59-41.42-42.34-75.88-83.79-97.03-40.67-20.75-87.95-26.23-133.16-15.46-24.31 5.79-46.45 15.91-65.93 30.12H426.07c-19.49-14.21-41.63-24.32-65.93-30.12-45.2-10.78-92.49-5.29-133.16 15.46-41.45 21.14-71.21 55.6-83.79 97.03L78.64 544.76c-11.84 38.96-7.03 80.14 13.53 115.98 23 40.09 63.96 69.7 112.38 81.25 14.95 3.56 29.34 5.31 43.09 5.31 67.27 0 118.88-41.88 141.95-117.8l0.13-0.43h246.83l0.13 0.43c12.97 42.69 35.55 75.75 65.29 95.61 32.75 21.87 74.07 27.7 119.49 16.88 48.42-11.54 89.38-41.16 112.38-81.25 20.55-35.84 25.36-77.03 13.52-115.98z m-55.11 92.11c-16.45 28.67-46.3 49.98-81.91 58.47-11.61 2.77-22.23 4.03-31.97 4.03-57.22 0-83.63-43.74-95.81-83.81l-10.46-34.44H354.17l-10.46 34.44c-14.26 46.92-48.05 98.86-128.05 79.79-35.61-8.49-65.46-29.8-81.91-58.47-13.91-24.24-17.19-52-9.24-78.18l64.55-212.48c15.37-50.57 67.83-83.86 125.32-83.86 11.43 0 23.07 1.32 34.64 4.08 20.24 4.83 38.37 13.61 53.88 26.12l6.59 5.31h207.02l6.59-5.31c15.51-12.5 33.64-21.29 53.88-26.12 69.77-16.63 141.53 19.16 159.95 79.78l64.55 212.48c7.96 26.17 4.68 53.93-9.23 78.17z" fill="#6D6D6D" p-id="12350"></path><path d="M687.560595 363.255822a35.96 35.96 0 1 0 69.995065-16.528075 35.96 35.96 0 1 0-69.995065 16.528075Z" fill="#6D6D6D" p-id="12351"></path><path d="M668.61 450.92m-35.96 0a35.96 35.96 0 1 0 71.92 0 35.96 35.96 0 1 0-71.92 0Z" fill="#6D6D6D" p-id="12352"></path><path d="M776.48 450.92m-35.96 0a35.96 35.96 0 1 0 71.92 0 35.96 35.96 0 1 0-71.92 0Z" fill="#6D6D6D" p-id="12353"></path><path d="M324 303.09c-61.69 0-111.87 50.19-111.87 111.87S262.31 526.83 324 526.83s111.87-50.19 111.87-111.87S385.68 303.09 324 303.09z m0 167.81c-30.84 0-55.94-25.09-55.94-55.94 0-30.84 25.09-55.94 55.94-55.94s55.94 25.09 55.94 55.94c-0.01 30.84-25.1 55.94-55.94 55.94z" fill="#6D6D6D" p-id="12354"></path></svg>