<?xml version="1.0" standalone="no"?><!DOCTYPE svg PUBLIC "-//W3C//DTD SVG 1.1//EN" "http://www.w3.org/Graphics/SVG/1.1/DTD/svg11.dtd"><svg t="1630672469580" class="icon" viewBox="0 0 1213 1024" version="1.1" xmlns="http://www.w3.org/2000/svg" p-id="18010" xmlns:xlink="http://www.w3.org/1999/xlink" width="236.9140625" height="200"><defs><style type="text/css"></style></defs><path d="M1063.329185 153.41037h-175.976296L822.120296 20.100741a36.02963 36.02963 0 0 0-29.847703-19.64563c-1.137778-0.151704-2.503111-0.151704-3.678815-0.151704h-360.675556a33.754074 33.754074 0 0 0-19.607703 6.219852c-5.613037 3.413333-10.505481 8.419556-14.032593 14.904889L328.438519 153.6H271.435852V115.484444c0-21.428148-22.565926-38.836148-62.426074-38.836148-34.133333 0-59.543704 17.445926-59.543704 38.836148v38.07763h-4.854518A144.270222 144.270222 0 0 0 0.379259 297.79437v542.72a144.156444 144.156444 0 0 0 144.232297 144.232297h918.565925c79.568593 0 144.232296-62.198519 144.232297-141.880889V297.642667a144.118519 144.118519 0 0 0-144.080593-144.232297zM604.653037 878.895407a311.599407 311.599407 0 0 1 0-623.160888 311.599407 311.599407 0 0 1 0 623.122962z m419.84-463.303111a80.06163 80.06163 0 0 1-80.023704-80.023703c0-44.107852 35.764148-79.834074 80.023704-79.834074a79.947852 79.947852 0 1 1 0 159.857777z" p-id="18011"></path><path d="M603.173926 379.600593a188.795259 188.795259 0 1 0 188.833185 188.833185 188.795259 188.795259 0 0 0-188.871111-188.871111z" p-id="18012"></path></svg>