<?xml version="1.0" standalone="no"?><!DOCTYPE svg PUBLIC "-//W3C//DTD SVG 1.1//EN" "http://www.w3.org/Graphics/SVG/1.1/DTD/svg11.dtd"><svg t="1630672325470" class="icon" viewBox="0 0 1024 1024" version="1.1" xmlns="http://www.w3.org/2000/svg" p-id="14927" xmlns:xlink="http://www.w3.org/1999/xlink" width="200" height="200"><defs><style type="text/css"></style></defs><path d="M138.034231 1023.34401A30.175529 30.175529 0 0 1 107.858703 993.168482V32.799488a30.175529 30.175529 0 1 1 65.598975 0V993.168482a30.175529 30.175529 0 0 1-35.423447 30.175528z" fill="#727171" p-id="14928"></path><path d="M313.183494 356.858424H140.0022a9.183857 9.183857 0 0 1-9.183856-9.183856V40.671365A9.183857 9.183857 0 0 1 140.65819 32.143498h173.181294a9.183857 9.183857 0 0 1 7.215887 3.935938 9.183857 9.183857 0 0 1 0 8.527867l-16.399743 39.359385 15.087764 33.455477a9.183857 9.183857 0 0 1 0 7.871877l-15.087764 32.799488 15.087764 32.799487a9.183857 9.183857 0 0 1 0 7.871877l-15.087764 32.799488 15.087764 32.799487a9.183857 9.183857 0 0 1 0 7.871877L304.655628 305.691224l15.743754 39.359385a9.183857 9.183857 0 0 1 0 8.527866 9.183857 9.183857 0 0 1-7.215888 3.279949zM148.530067 338.490711h150.877643l-11.807816-30.175528a9.183857 9.183857 0 0 1 0-7.215888l17.055734-32.799487-15.087765-32.799488a9.183857 9.183857 0 0 1 0-7.871877l15.087765-32.799487-15.087765-32.799488a9.183857 9.183857 0 0 1 0-7.871877L304.655628 120.702114l-15.087765-32.799487a9.183857 9.183857 0 0 1 0-7.215888l11.151826-30.175528H149.842047z" fill="#727171" p-id="14929"></path><path d="M296.783751 93.150545H140.65819a9.183857 9.183857 0 1 1 0-18.367713h156.125561a9.183857 9.183857 0 1 1 0 18.367713zM313.839484 129.885971H140.65819a9.183857 9.183857 0 1 1 0-18.367713h173.181294a9.183857 9.183857 0 1 1 0 18.367713zM296.783751 166.621397H140.0022a9.183857 9.183857 0 1 1 0-18.367713h156.781551a9.183857 9.183857 0 1 1 0 18.367713zM313.183494 204.012812H140.0022a9.183857 9.183857 0 1 1 0-18.367713h173.181294a9.183857 9.183857 0 1 1 0 18.367713zM296.127761 240.748238H140.0022a9.183857 9.183857 0 1 1 0-18.367713h156.125561a9.183857 9.183857 0 1 1 0 18.367713zM296.127761 314.21909H140.0022a9.183857 9.183857 0 1 1 0-18.367713h156.125561a9.183857 9.183857 0 1 1 0 18.367713zM313.183494 277.483664H140.0022a9.183857 9.183857 0 1 1 0-18.367713h173.181294a9.183857 9.183857 0 1 1 0 18.367713zM624.778626 2.623959h65.598975a56.415119 56.415119 0 0 1 56.415118 56.415119v135.133888H567.051528V59.695067A56.415119 56.415119 0 0 1 624.778626 2.623959zM908.166198 940.033312H408.302008l-6.559897 83.966688h512.327995l-5.903908-83.966688zM871.430772 605.478539A2198.877643 2198.877643 0 0 1 862.902905 330.618834a119.390135 119.390135 0 0 0-119.390134-118.078155H572.299446A119.390135 119.390135 0 0 0 453.565301 330.618834a2211.341448 2211.341448 0 0 1-8.527867 273.547726c-14.431775 196.796925-34.111467 308.971172-34.111467 308.971172h495.928251s-20.991672-114.142217-35.423446-307.659193z" fill="#727171" p-id="14930"></path></svg>