<?xml version="1.0" standalone="no"?><!DOCTYPE svg PUBLIC "-//W3C//DTD SVG 1.1//EN" "http://www.w3.org/Graphics/SVG/1.1/DTD/svg11.dtd"><svg t="1630672492529" class="icon" viewBox="0 0 1024 1024" version="1.1" xmlns="http://www.w3.org/2000/svg" p-id="18913" xmlns:xlink="http://www.w3.org/1999/xlink" width="200" height="200"><defs><style type="text/css"></style></defs><path d="M855.964098 792.376195c39.161756 0 70.930732-31.269463 70.930731-69.85678 0-38.587317-31.768976-69.85678-70.930731-69.856781-39.161756 0-70.930732 31.269463-70.930732 69.856781 0 38.587317 31.768976 69.85678 70.930732 69.85678zM885.934829 823.121171H527.609756c-22.627902 0-40.96 13.262049-40.96 40.335609s18.332098 40.33561 40.96 40.33561h358.325073c22.627902 0 40.96-10.914341 40.96-40.33561s-18.332098-40.33561-40.96-40.335609zM698.617756 615.399024v41.534439h-58.143219c34.391415-25.82478 27.02361-75.026732-9.840391-75.026731H537.724878c-17.408 0-31.544195 9.590634-31.544195 31.069658s14.136195 31.044683 31.544195 31.044683h34.791024c-66.33522 65.735805-48.677463 148.355122 24.576 148.355122h112.190439c31.669073 0 57.319024-25.275317 57.319025-56.444878v-120.557268c0-18.481951-8.167024-33.467317-33.966829-33.467317-25.849756 0-33.991805 14.985366-33.991805 33.467317zM591.322537 195.409171c47.054049 0 85.166829-37.563317 85.166829-83.918049 0-46.30478-38.11278-83.893073-85.166829-83.893073-47.029073 0-85.166829 37.588293-85.16683 83.918049s38.137756 83.918049 85.16683 83.918048z" p-id="18914"></path><path d="M702.339122 530.856585c13.237073-32.967805-0.674341-51.2-25.150439-60.440975l-136.616585-51.524683V256.499512c0-29.845854-12.637659-58.99239-36.314537-77.624195a98.154146 98.154146 0 0 0-127.700293 5.344781l-186.392975 174.979122a151.227317 151.227317 0 0 0-45.205854 82.244682L97.404878 693.822439a17.982439 17.982439 0 0 0 17.857561 21.154341h93.608585v241.21444c0 31.644098 5.269854 57.294049 58.14322 57.294048 52.898341 0 58.14322-25.649951 58.143219-57.294048v-241.21444h91.31083a17.982439 17.982439 0 0 0 17.732683-21.703804L377.63122 435.82439l72.878829-71.779902v83.243707c0 21.254244 13.386927 40.260683 33.592195 47.703415l160.892878 59.292097c22.403122 8.241951 44.106927 9.490732 57.368976-23.427122z" p-id="18915"></path></svg>