<?xml version="1.0" standalone="no"?><!DOCTYPE svg PUBLIC "-//W3C//DTD SVG 1.1//EN" "http://www.w3.org/Graphics/SVG/1.1/DTD/svg11.dtd"><svg t="1630671939171" class="icon" viewBox="0 0 1024 1024" version="1.1" xmlns="http://www.w3.org/2000/svg" p-id="8726" xmlns:xlink="http://www.w3.org/1999/xlink" width="200" height="200"><defs><style type="text/css"></style></defs><path d="M936.298054 891.459335l-44.817742 0L891.480312 465.706651c0-24.739451-20.074198-44.812625-44.813648-44.812625L622.584096 420.894026l0 44.812625 201.675232 0c12.368702 0 22.406313 10.042727 22.406313 22.411429l0 380.934942c0 12.368702-10.038634 22.406313-22.406313 22.406313L555.364135 891.459335 555.364135 129.58945c0-24.737404-20.080338-44.817742-44.819788-44.817742L174.4251 84.771709c-24.739451 0-44.814672 20.080338-44.814672 44.817742l0 761.870908L84.791663 891.460358c-12.368702 0-22.406313 10.037611-22.406313 22.406313s10.037611 22.410406 22.406313 22.410406L936.298054 936.277076c12.369725 0 22.406313-10.041704 22.406313-22.410406S948.667779 891.459335 936.298054 891.459335L936.298054 891.459335zM510.544347 891.459335 174.4251 891.459335 174.4251 151.997809c0-12.370749 10.041704-22.408359 22.411429-22.408359l291.302529 0c12.368702 0 22.406313 10.037611 22.406313 22.408359L510.54537 891.459335 510.544347 891.459335zM241.649154 420.894026l67.226101 0L308.875255 353.667925l-67.226101 0L241.649154 420.894026 241.649154 420.894026zM241.649154 286.442848l67.226101 0 0-67.220984-67.226101 0L241.649154 286.442848 241.649154 286.442848zM376.098285 420.894026l67.222007 0L443.320293 353.667925l-67.222007 0L376.098285 420.894026 376.098285 420.894026zM376.098285 286.442848l67.222007 0 0-67.220984-67.222007 0L376.098285 286.442848 376.098285 286.442848zM376.098285 286.442848" p-id="8727"></path></svg>