<?xml version="1.0" standalone="no"?><!DOCTYPE svg PUBLIC "-//W3C//DTD SVG 1.1//EN" "http://www.w3.org/Graphics/SVG/1.1/DTD/svg11.dtd"><svg t="1630671777513" class="icon" viewBox="0 0 1024 1024" version="1.1" xmlns="http://www.w3.org/2000/svg" p-id="6248" xmlns:xlink="http://www.w3.org/1999/xlink" width="200" height="200"><defs><style type="text/css"></style></defs><path d="M903.587818 281.45913l47.848053 677.804758H65.095484L112.943536 281.45913h790.644282m11.77011-63.967984H101.173427a51.174387 51.174387 0 0 0-51.174387 48.103924L0.359884 968.219406a51.174387 51.174387 0 0 0 51.174387 55.780082h913.462812a51.174387 51.174387 0 0 0 51.174387-55.780082l-49.639155-701.856721a51.174387 51.174387 0 0 0-51.174387-48.103924z m-210.838476 143.544156a23.79609 23.79609 0 0 0 0-6.140927V197.533135a197.533135 197.533135 0 1 0-395.066269 0v158.128856a23.79609 23.79609 0 0 0 1.27936 6.140927 51.174387 51.174387 0 1 0 81.879019 40.683637 51.174387 51.174387 0 0 0-20.469755-40.683637 23.79609 23.79609 0 0 0 0-6.140927V197.533135a133.565151 133.565151 0 1 1 267.130301 0v158.128856a23.79609 23.79609 0 0 0 1.27936 6.140927 51.174387 51.174387 0 0 0-20.469755 40.683637 51.174387 51.174387 0 1 0 81.87902-40.683637z" p-id="6249"></path></svg>